<svg data-status="superseded-exploration" xmlns="http://www.w3.org/2000/svg" width="720" height="1280" viewBox="0 0 720 1280" fill="#202829" role="img" aria-labelledby="title desc">
  <title id="title">Living Animated Workshop Diorama Era 1 main gameplay</title>
  <desc id="desc">World-first portrait game screen with a compact status rail, a deep desk cutaway where WATT physically lives among a lamp, outlet, cables, fan and battery bay, an attached request plate, one contextual action shelf, and compact navigation.</desc>
  <defs>
    <linearGradient id="wall" x1="0" y1="0" x2="1" y2="1"><stop stop-color="#B69B73"/><stop offset=".52" stop-color="#806A52"/><stop offset="1" stop-color="#4B3A2E"/></linearGradient>
    <linearGradient id="wood" x1="0" y1="0" x2="0" y2="1"><stop stop-color="#A4774E"/><stop offset=".3" stop-color="#6B4932"/><stop offset="1" stop-color="#3D2B22"/></linearGradient>
    <linearGradient id="steel" x1="0" y1="0" x2="1" y2="1"><stop stop-color="#667574"/><stop offset=".5" stop-color="#4B5958"/><stop offset="1" stop-color="#2D3737"/></linearGradient>
    <radialGradient id="amber"><stop stop-color="#F3B75B" stop-opacity=".58"/><stop offset="1" stop-color="#D98B36" stop-opacity="0"/></radialGradient>
    <radialGradient id="cyan"><stop stop-color="#48D7DF" stop-opacity=".34"/><stop offset="1" stop-color="#24B8C7" stop-opacity="0"/></radialGradient>
    <filter id="shadow" x="-30%" y="-30%" width="160%" height="180%"><feDropShadow dx="0" dy="8" stdDeviation="8" flood-color="#111" flood-opacity=".42"/></filter>
    <filter id="paint"><feTurbulence baseFrequency=".045" numOctaves="2" seed="8" type="fractalNoise" result="n"/><feColorMatrix in="n" values="1 0 0 0 0 0 1 0 0 0 0 0 1 0 0 0 0 0 .12 0" result="t"/><feBlend in="SourceGraphic" in2="t" mode="multiply"/></filter>
    <style>.ui{font-family:"Atkinson Hyperlegible Next","DejaVu Sans",sans-serif}.mono{font-family:"Atkinson Hyperlegible Mono","DejaVu Sans Mono",monospace}.b{font-weight:700}.m{font-weight:600}.light{fill:#FFF9EC}.muted{fill:#C9D1CC}.ink2{fill:#566160}</style>
  </defs>
  <rect width="720" height="1280" fill="#171D1D"/>

  <!-- 10.94% status rail -->
  <rect width="720" height="140" fill="#252B2C"/>
  <path d="M0 128h720" stroke="#D98B36" stroke-width="3" opacity=".65"/>
  <text x="24" y="43" class="ui b light" font-size="28">COLD BOOT</text>
  <text x="24" y="81" class="ui m muted" font-size="25">Desk · Era 01</text>
  <text x="355" y="62" text-anchor="middle" class="mono b" font-size="38" fill="#E5A91B">24 SE</text>
  <text x="624" y="62" text-anchor="end" class="mono b light" font-size="34">8 W</text>
  <rect x="650" y="22" width="48" height="48" rx="6" fill="#F7F1E5"/><path d="M663 35h22M663 46h22M663 57h22" stroke="#252B2C" stroke-width="4"/>
  <text x="355" y="106" text-anchor="middle" class="ui m muted" font-size="21">TRANSMISSION IS LIMITING</text>

  <!-- 63.28% unbroken diorama -->
  <g id="diorama">
    <rect x="0" y="140" width="720" height="810" fill="url(#wall)"/>
    <path d="M0 140h48v810H0z" fill="#342921"/><path d="M672 140h48v810h-48z" fill="#231E1B"/>
    <path d="M48 140h624l-42 44H88z" fill="#C0A882" opacity=".45"/>
    <path d="M48 826h624v124H48z" fill="#30251F"/><path d="M48 826h624l-62 42H95z" fill="#5A4434"/>
    <path d="M116 140v686M594 140v686" stroke="#503C2F" stroke-width="10" opacity=".55"/>
    <path d="M68 290h188M484 258h154" stroke="#C6A875" stroke-width="4" opacity=".35"/>
    <path d="M78 182q18 12 43 0M550 214q26 10 53-2" stroke="#E4C691" stroke-width="3" opacity=".2" fill="none"/>

    <!-- warm lamp and bounded light -->
    <ellipse cx="171" cy="494" rx="220" ry="260" fill="url(#amber)"/>
    <path d="M113 492l35-167 20 4-34 169" stroke="#2D3737" stroke-width="13" fill="none"/>
    <circle cx="158" cy="326" r="15" fill="#333B3B" stroke="#8B8D84" stroke-width="4"/>
    <path d="M130 322q30-55 79-12l-34 67-62-25z" fill="#596360" stroke="#252B2C" stroke-width="5" filter="url(#shadow)"/>
    <path d="M145 348q20 13 38 4" stroke="#F3B75B" stroke-width="6"/>
    <rect x="90" y="486" width="94" height="17" rx="3" fill="#2D3737"/>
    <rect x="101" y="502" width="72" height="16" fill="#6B4932"/>

    <!-- outlet and source cable -->
    <rect x="64" y="418" width="72" height="96" rx="5" fill="#C3B79F" stroke="#333B3B" stroke-width="5" filter="url(#shadow)"/>
    <circle cx="88" cy="454" r="6" fill="#252B2C"/><circle cx="114" cy="454" r="6" fill="#252B2C"/><path d="M91 483h19" stroke="#252B2C" stroke-width="6"/>
    <rect x="74" y="519" width="52" height="22" rx="3" fill="#F7F1E5"/><text x="100" y="535" text-anchor="middle" class="mono b" font-size="14">OUTLET 01</text>
    <path d="M100 505C96 592 150 603 213 624S250 659 278 652" fill="none" stroke="#171D1D" stroke-width="18" stroke-linecap="round"/>
    <path d="M100 505C96 592 150 603 213 624S250 659 278 652" fill="none" stroke="#E5A91B" stroke-width="7" stroke-dasharray="21 13" stroke-linecap="round"/>

    <!-- desk, rails, labels -->
    <path d="M80 636h558v48H80z" fill="url(#wood)" stroke="#30251F" stroke-width="5" filter="url(#shadow)"/>
    <path d="M97 684h32v150H97zM588 684h31v150h-31z" fill="#4A3428"/>
    <path d="M80 643h558" stroke="#C69A65" stroke-width="5" opacity=".65"/>
    <rect x="201" y="654" width="118" height="24" fill="#F7F1E5" transform="rotate(-1 201 654)"/><text x="260" y="671" text-anchor="middle" class="mono b" font-size="14">TEMPORARY · REV 4</text>
    <path d="M214 632h266" stroke="#252B2C" stroke-width="10"/><circle cx="238" cy="632" r="6" fill="#8B8D84"/><circle cx="455" cy="632" r="6" fill="#8B8D84"/>

    <!-- WATT cyan pool -->
    <ellipse cx="382" cy="500" rx="250" ry="230" fill="url(#cyan)"/>

    <!-- WATT physical terminal -->
    <g id="watt" filter="url(#shadow)">
      <path d="M257 345h238l28 24v184l-22 26H246l-19-25V374z" fill="url(#steel)" stroke="#252B2C" stroke-width="7"/>
      <path d="M257 345h238l14 12H246z" fill="#82908C" opacity=".55"/>
      <rect x="267" y="382" width="217" height="128" rx="8" fill="#102829" stroke="#263536" stroke-width="8"/>
      <path d="M303 438q20-21 40 0M407 438q20-21 40 0" fill="none" stroke="#24B8C7" stroke-width="14" stroke-linecap="round"/>
      <rect x="328" y="530" width="95" height="29" rx="4" fill="#172829" stroke="#71807C" stroke-width="3"/>
      <path d="M371 534l-10 13h10l-5 9 19-16h-11l7-6z" fill="#24B8C7"/>
      <circle cx="251" cy="538" r="8" fill="#24B8C7"/><circle cx="278" cy="538" r="8" fill="#2B764C"/>
      <path d="M472 529h28M472 542h28M472 555h20" stroke="#1C2727" stroke-width="6"/>
      <path d="M234 422l14-9M502 402l12 7M467 563l27-7" stroke="#D4DDD7" stroke-width="5" opacity=".25"/>
      <circle cx="249" cy="365" r="6" fill="#8B8D84"/><circle cx="500" cy="369" r="6" fill="#8B8D84"/>
      <path d="M275 579v23h-28v26M477 579v23h29v26" fill="none" stroke="#252B2C" stroke-width="13"/>
      <path d="M251 628h74M432 628h78" stroke="#252B2C" stroke-width="16"/>
      <path d="M228 472c-36 4-52 27-35 56" fill="none" stroke="#252B2C" stroke-width="18" stroke-linecap="round"/>
      <path d="M228 472c-36 4-52 27-35 56" fill="none" stroke="#5D4BB3" stroke-width="6" stroke-dasharray="15 10"/>
      <rect x="333" y="579" width="92" height="24" fill="#F7F1E5" transform="rotate(-1 333 579)"/><text x="379" y="596" text-anchor="middle" class="mono b" font-size="14">WATT · UNIT 01</text>
    </g>

    <!-- fan: physical response prop -->
    <g filter="url(#shadow)">
      <path d="M554 500v110" stroke="#333B3B" stroke-width="13"/><rect x="521" y="605" width="74" height="18" rx="4" fill="#333B3B"/>
      <circle cx="554" cy="466" r="65" fill="#596360" stroke="#252B2C" stroke-width="7"/>
      <circle cx="554" cy="466" r="52" fill="#1F2C2C" stroke="#AAB3AC" stroke-width="4"/>
      <path d="M554 466c-8-38 22-44 34-20 10 20-11 25-34 20zm0 0c36 13 27 43 1 43-22 0-17-22-1-43zm0 0c-26 27-49 7-35-15 12-19 29-3 35 15z" fill="#7F8D89"/>
      <circle cx="554" cy="466" r="9" fill="#D98B36"/>
      <rect x="516" y="534" width="76" height="21" fill="#F7F1E5"/><text x="554" y="549" text-anchor="middle" class="mono b" font-size="13">AUX COOLING</text>
    </g>

    <!-- battery installation space -->
    <g>
      <rect x="528" y="703" width="114" height="112" rx="5" fill="#252B2C" opacity=".7" stroke="#8B8D84" stroke-width="4" stroke-dasharray="10 8"/>
      <path d="M549 728h73M549 751h73M549 774h73" stroke="#8B8D84" stroke-width="5" opacity=".55"/>
      <rect x="534" y="787" width="102" height="22" fill="#F7F1E5"/><text x="585" y="803" text-anchor="middle" class="mono b" font-size="13">BATTERY · OPTIMISTIC</text>
      <circle cx="615" cy="716" r="6" fill="#23745F"/>
    </g>

    <!-- attached request plate -->
    <path d="M169 680v88M542 680v88" stroke="#252B2C" stroke-width="8"/><circle cx="169" cy="682" r="8" fill="#8B8D84"/><circle cx="542" cy="682" r="8" fill="#8B8D84"/>
    <g filter="url(#shadow)">
      <path d="M91 756h538l16 16v157H75V772z" fill="#F7F1E5" stroke="#252B2C" stroke-width="5"/>
      <rect x="75" y="756" width="14" height="173" fill="#24B8C7"/>
      <text x="108" y="794" class="ui b" font-size="23" fill="#006E79">WATT REQUEST</text>
      <text x="108" y="838" class="ui b" font-size="38">Finish Booting</text>
      <text x="108" y="874" class="ui m" font-size="28">“May I finish waking up?”</text>
      <rect x="108" y="892" width="462" height="15" rx="3" fill="#DCD3C3"/><rect x="108" y="892" width="282" height="15" fill="#24B8C7"/>
      <text x="603" y="906" text-anchor="end" class="mono b" font-size="21">25s</text>
      <rect x="444" y="785" width="162" height="43" rx="6" fill="#5D4BB3"/><text x="525" y="814" text-anchor="middle" class="ui b light" font-size="21">TRANSMISSION</text>
    </g>
  </g>

  <!-- one contextual shelf; numbers third -->
  <rect x="0" y="950" width="720" height="220" fill="#252B2C"/>
  <path d="M0 950h720" stroke="#A4774E" stroke-width="10"/>
  <text x="30" y="994" class="ui b light" font-size="28">WATT points to the loose cable.</text>
  <text x="30" y="1027" class="ui m muted" font-size="24">Add Transmission so all generated power can reach the desk.</text>
  <rect x="30" y="1050" width="660" height="44" rx="5" fill="#171D1D"/>
  <text x="50" y="1080" class="mono m" font-size="20" fill="#E5A91B">Generation 5 W</text>
  <text x="271" y="1080" class="mono m" font-size="20" fill="#B8A9FF">Transmission 8 W</text>
  <text x="521" y="1080" class="mono m" font-size="20" fill="#77C9AC">Reserve 0 / 10</text>
  <rect x="30" y="1110" width="420" height="48" rx="6" fill="#5D4BB3"/><text x="50" y="1142" class="ui b light" font-size="26">Build a better cable · 18 SE</text>
  <rect x="466" y="1110" width="224" height="48" rx="6" fill="#F7F1E5"/><text x="578" y="1142" text-anchor="middle" class="ui b" font-size="26">Review request</text>

  <!-- compact navigation -->
  <rect x="0" y="1170" width="720" height="110" fill="#171D1D"/>
  <rect x="10" y="1182" width="164" height="82" rx="7" fill="#F7F1E5"/><text x="92" y="1228" text-anchor="middle" class="ui b" font-size="28">● Grid</text>
  <text x="266" y="1229" text-anchor="middle" class="ui b light" font-size="27">Build</text>
  <text x="438" y="1229" text-anchor="middle" class="ui b light" font-size="27">Upgrades</text>
  <text x="620" y="1229" text-anchor="middle" class="ui b light" font-size="27">Reports</text>
</svg>
