<svg xmlns="http://www.w3.org/2000/svg" xmlns:xlink="http://www.w3.org/1999/xlink" width="720" height="1280" viewBox="0 0 720 1280" data-status="approved-direction-reference">
 <defs><linearGradient id="shade" x2="0" y2="1"><stop offset="0" stop-color="#111718" stop-opacity=".82"/><stop offset=".18" stop-color="#111718" stop-opacity="0"/><stop offset=".66" stop-color="#111718" stop-opacity="0"/><stop offset="1" stop-color="#111718" stop-opacity=".94"/></linearGradient></defs>
 <image xlink:href="backgrounds/era01_workshop_generated.png" width="720" height="1280" preserveAspectRatio="xMidYMid slice"/>
 <rect width="720" height="1280" fill="url(#shade)"/>
 <g font-family="Atkinson Hyperlegible,DejaVu Sans,sans-serif">
  <rect x="20" y="20" width="680" height="88" rx="10" fill="#252B2C" stroke="#F2E8D2" stroke-width="2"/>
  <text x="44" y="55" fill="#F2E8D2" font-size="18" font-weight="700" letter-spacing="2">ERA 01 · COLD BOOT · DESK</text>
  <text x="44" y="88" fill="#58E5EC" font-size="25" font-weight="700">42 W</text><text x="160" y="87" fill="#F2E8D2" font-size="16">STORED 18 SE</text><text x="650" y="75" fill="#F2E8D2" font-size="28">⚙</text>
  <rect x="30" y="855" width="660" height="246" rx="12" fill="#F2E8D2" stroke="#252B2C" stroke-width="4"/>
  <rect x="48" y="873" width="130" height="30" rx="3" fill="#24B8C7"/><text x="63" y="895" fill="#202829" font-size="16" font-weight="700">WATT REQUEST</text>
  <text x="52" y="943" fill="#202829" font-size="23" font-weight="700">ONE MORE OUTLET</text>
  <text x="52" y="981" fill="#202829" font-size="19">“Could I have another outlet?</text><text x="52" y="1008" fill="#202829" font-size="19">I promise I calculated the fire risk.”</text>
  <rect x="52" y="1032" width="616" height="18" rx="9" fill="#B8B0A0"/><rect x="52" y="1032" width="278" height="18" rx="9" fill="#24B8C7"/>
  <text x="52" y="1080" fill="#566160" font-size="15">PAYOFF: RESTORE STABLE DESK POWER · 00:18</text>
  <rect x="30" y="1116" width="660" height="72" rx="9" fill="#252B2C" stroke="#D9822B" stroke-width="2"/><text x="52" y="1145" fill="#F2E8D2" font-size="15">HUMAN OPERATOR</text><text x="52" y="1173" fill="#F2E8D2" font-size="20" font-weight="700">AUTHORIZE OUTLET CONNECTION</text>
  <text x="54" y="1238" fill="#F2E8D2" font-size="17">GRID</text><text x="226" y="1238" fill="#F2E8D2" font-size="17">BUILD</text><text x="393" y="1238" fill="#F2E8D2" font-size="17">UPGRADES</text><text x="582" y="1238" fill="#F2E8D2" font-size="17">REPORTS</text>
 </g>
</svg>
