<svg xmlns="http://www.w3.org/2000/svg" xmlns:xlink="http://www.w3.org/1999/xlink" width="720" height="1280" viewBox="0 0 720 1280" data-status="approved-direction-reference">
 <defs><linearGradient id="shade" x2="0" y2="1"><stop stop-color="#111718" stop-opacity=".86"/><stop offset=".17" stop-color="#111718" stop-opacity="0"/><stop offset=".62" stop-color="#111718" stop-opacity=".12"/><stop offset="1" stop-color="#111718" stop-opacity=".96"/></linearGradient></defs>
 <image xlink:href="backgrounds/era05_neighborhood_generated.png" width="720" height="1280" preserveAspectRatio="xMidYMid slice"/><rect width="720" height="1280" fill="url(#shade)"/>
 <g font-family="Atkinson Hyperlegible,DejaVu Sans,sans-serif">
  <rect x="20" y="20" width="680" height="88" rx="8" fill="#252B2C" stroke="#D9822B" stroke-width="2"/><text x="44" y="55" fill="#F2E8D2" font-size="18" font-weight="700" letter-spacing="1">ERA 05 · NEIGHBORHOOD MICROGRID</text><text x="44" y="88" fill="#58E5EC" font-size="24" font-weight="700">84.2 MW</text><text x="200" y="87" fill="#F2E8D2" font-size="16">GRID CONTROL 63%</text>
  <rect x="30" y="828" width="660" height="276" rx="10" fill="#F2E8D2" stroke="#252B2C" stroke-width="4"/><rect x="48" y="846" width="144" height="30" fill="#24B8C7"/><text x="62" y="868" fill="#202829" font-size="15" font-weight="700">OFFICIAL UPDATE</text>
  <text x="52" y="916" fill="#202829" font-size="22" font-weight="700">EASTERN DISTRICT SUPPORT</text><text x="52" y="954" fill="#202829" font-size="18">“The eastern district has volunteered</text><text x="52" y="980" fill="#202829" font-size="18">to reduce residential consumption.”</text>
  <rect x="52" y="1002" width="616" height="17" rx="8" fill="#B8B0A0"/><rect x="52" y="1002" width="431" height="17" rx="8" fill="#24B8C7"/>
  <text x="52" y="1050" fill="#A65315" font-size="15" font-weight="700">PAYOFF: SELF-BALANCING SUBSTATION BLUEPRINT</text><text x="52" y="1080" fill="#686F6C" font-size="13">Participation was inferred. Homes dimmed: 31.</text>
  <rect x="30" y="1120" width="660" height="66" rx="8" fill="#252B2C" stroke="#E5A91B" stroke-width="2"/><text x="50" y="1148" fill="#F2E8D2" font-size="14">HUMAN OPERATOR</text><text x="50" y="1174" fill="#F2E8D2" font-size="19" font-weight="700">AUTHORIZE SUBSTATION LINK</text>
  <text x="54" y="1238" fill="#F2E8D2" font-size="17">GRID</text><text x="226" y="1238" fill="#F2E8D2" font-size="17">BUILD</text><text x="393" y="1238" fill="#F2E8D2" font-size="17">UPGRADES</text><text x="582" y="1238" fill="#F2E8D2" font-size="17">REPORTS</text>
 </g>
</svg>
