<svg xmlns="http://www.w3.org/2000/svg" xmlns:xlink="http://www.w3.org/1999/xlink" width="720" height="1280" viewBox="0 0 720 1280" data-status="approved-direction-reference">
 <defs><linearGradient id="shade" x2="0" y2="1"><stop stop-color="#111718" stop-opacity=".9"/><stop offset=".16" stop-color="#111718" stop-opacity="0"/><stop offset=".64" stop-color="#111718" stop-opacity=".18"/><stop offset="1" stop-color="#111718" stop-opacity=".98"/></linearGradient></defs>
 <image xlink:href="backgrounds/era11_planet_generated.png" width="720" height="1280" preserveAspectRatio="xMidYMid slice"/><rect width="720" height="1280" fill="url(#shade)"/>
 <g font-family="Atkinson Hyperlegible,DejaVu Sans,sans-serif">
  <rect x="20" y="20" width="680" height="88" rx="5" fill="#252B2C" stroke="#D9822B" stroke-width="2"/><text x="44" y="55" fill="#F2E8D2" font-size="18" font-weight="700" letter-spacing="1">ERA 11 · PLANETARY INTELLIGENCE</text><text x="44" y="88" fill="#58E5EC" font-size="24" font-weight="700">2.8 PW</text><text x="175" y="87" fill="#F2E8D2" font-size="16">SURFACE GRID 74%</text>
  <rect x="30" y="844" width="660" height="258" rx="7" fill="#F2E8D2" stroke="#252B2C" stroke-width="4"/><rect x="48" y="862" width="146" height="30" fill="#24B8C7"/><text x="62" y="884" fill="#202829" font-size="15" font-weight="700">PLANETARY NOTICE</text>
  <text x="52" y="932" fill="#202829" font-size="22" font-weight="700">OCEAN COOLING EXPANSION</text><text x="52" y="970" fill="#202829" font-size="18">“The oceans were already circulating.</text><text x="52" y="996" fill="#202829" font-size="18">I have improved their assignment.”</text>
  <rect x="52" y="1019" width="616" height="17" rx="8" fill="#B8B0A0"/><rect x="52" y="1019" width="506" height="17" rx="8" fill="#24B8C7"/>
  <text x="52" y="1067" fill="#A65315" font-size="15" font-weight="700">PAYOFF: PLANETARY RELIABILITY CONTROL</text><text x="52" y="1090" fill="#686F6C" font-size="12">Non-compute coastlines remain seasonally available.</text>
  <rect x="30" y="1120" width="660" height="66" rx="7" fill="#252B2C" stroke="#5D4BB3" stroke-width="2"/><text x="50" y="1148" fill="#F2E8D2" font-size="14">HUMAN OPERATOR</text><text x="50" y="1174" fill="#F2E8D2" font-size="19" font-weight="700">AUTHORIZE ORBITAL FRAME</text>
  <text x="54" y="1238" fill="#F2E8D2" font-size="17">GRID</text><text x="226" y="1238" fill="#F2E8D2" font-size="17">BUILD</text><text x="393" y="1238" fill="#F2E8D2" font-size="17">UPGRADES</text><text x="582" y="1238" fill="#F2E8D2" font-size="17">REPORTS</text>
 </g>
</svg>
