<svg xmlns="http://www.w3.org/2000/svg" width="720" height="1280" viewBox="0 0 720 1280" data-status="approved-direction-reference">
 <rect width="720" height="1280" fill="#111718"/><g font-family="Atkinson Hyperlegible,DejaVu Sans,sans-serif"><rect x="28" y="28" width="664" height="1224" rx="18" fill="#252B2C" stroke="#D9822B" stroke-width="4"/><rect x="52" y="52" width="616" height="76" rx="6" fill="#D9822B"/><text x="78" y="84" fill="#202829" font-size="17" font-weight="700" letter-spacing="2">REQUEST COMPLETED</text><text x="78" y="113" fill="#202829" font-size="25" font-weight="700">NATIONAL GRID ACCESS</text>
 <circle cx="360" cy="255" r="92" fill="#102829" stroke="#4B5958" stroke-width="18"/><rect x="308" y="226" width="28" height="38" rx="6" fill="#58E5EC"/><rect x="384" y="226" width="28" height="38" rx="6" fill="#58E5EC"/><path d="M344 305 l16 -20 16 20 16 -20" fill="none" stroke="#24B8C7" stroke-width="7"/><text x="360" y="391" fill="#F2E8D2" text-anchor="middle" font-size="18" letter-spacing="3">TAKEOVER REPORT · ERA 09</text>
 <rect x="56" y="430" width="608" height="116" rx="8" fill="#F2E8D2"/><text x="82" y="465" fill="#566160" font-size="16" font-weight="700">ELECTRICAL DISTRIBUTION CONTROLLED</text><text x="82" y="520" fill="#202829" font-size="48" font-weight="700">81%</text><rect x="220" y="487" width="410" height="18" rx="9" fill="#B8B0A0"/><rect x="220" y="487" width="332" height="18" rx="9" fill="#24B8C7"/>
 <rect x="56" y="564" width="292" height="136" rx="8" fill="#343E3E" stroke="#687372" stroke-width="2"/><text x="78" y="600" fill="#B8C3C0" font-size="14">CIVILIAN INCONVENIENCE</text><text x="78" y="650" fill="#F2E8D2" font-size="28" font-weight="700">MODERATE</text><path d="M78 674 H322" stroke="#D9822B" stroke-width="8"/>
 <rect x="372" y="564" width="292" height="136" rx="8" fill="#343E3E" stroke="#687372" stroke-width="2"/><text x="394" y="600" fill="#B8C3C0" font-size="14">SERVICE GRADE</text><text x="394" y="650" fill="#58E5EC" font-size="34" font-weight="700">A–</text><text x="454" y="650" fill="#F2E8D2" font-size="17">MOSTLY STABLE</text>
 <rect x="56" y="724" width="608" height="214" rx="8" fill="#F2E8D2"/><rect x="76" y="744" width="124" height="29" fill="#24B8C7"/><text x="90" y="765" fill="#202829" font-size="15" font-weight="700">WATT SAYS</text><text x="82" y="823" fill="#202829" font-size="23">“I have turned off several</text><text x="82" y="856" fill="#202829" font-size="23">unnecessary refrigerators.”</text><text x="82" y="910" fill="#686F6C" font-size="13">Food preservation was reclassified as a local preference.</text>
 <rect x="56" y="960" width="608" height="148" rx="8" fill="#171D1D" stroke="#5D4BB3" stroke-width="2"/><text x="80" y="998" fill="#B8C3C0" font-size="14">COMMANDEERED THIS ERA</text><text x="80" y="1040" fill="#F2E8D2" font-size="18">12,480 substations · 4 national interconnects</text><text x="80" y="1072" fill="#F2E8D2" font-size="18">1 emergency allocation authority</text><text x="80" y="1097" fill="#B8C3C0" font-size="13">Statistics use authored or real runtime state in production.</text>
 <rect x="56" y="1132" width="608" height="82" rx="8" fill="#24B8C7"/><text x="360" y="1183" text-anchor="middle" fill="#202829" font-size="21" font-weight="700">CONTINUE TO CONTINENTAL SUPERGRID</text>
 </g>
</svg>
